<?xml version="1.0" encoding="UTF-8" standalone="no"?>
<svg
   viewBox="0 0 128 128"
   width="128"
   height="128"
   version="1.1"
   id="svg3"
   sodipodi:docname="icon.svg"
   xml:space="preserve"
   inkscape:version="1.4 (86a8ad7, 2024-10-11)"
   inkscape:export-filename="icon.png"
   inkscape:export-xdpi="384"
   inkscape:export-ydpi="384"
   xmlns:inkscape="http://www.inkscape.org/namespaces/inkscape"
   xmlns:sodipodi="http://sodipodi.sourceforge.net/DTD/sodipodi-0.dtd"
   xmlns:xlink="http://www.w3.org/1999/xlink"
   xmlns="http://www.w3.org/2000/svg"
   xmlns:svg="http://www.w3.org/2000/svg"><sodipodi:namedview
     id="namedview3"
     pagecolor="#ffffff"
     bordercolor="#000000"
     borderopacity="0.25"
     inkscape:showpageshadow="2"
     inkscape:pageopacity="0.0"
     inkscape:pagecheckerboard="0"
     inkscape:deskcolor="#d1d1d1"
     inkscape:zoom="10.240055"
     inkscape:cx="55.956731"
     inkscape:cy="69.482049"
     inkscape:window-width="1920"
     inkscape:window-height="991"
     inkscape:window-x="-9"
     inkscape:window-y="-9"
     inkscape:window-maximized="1"
     inkscape:current-layer="svg3" /><defs
     id="defs3"><linearGradient
       id="linearGradient14"
       inkscape:collect="always"><stop
         style="stop-color:#0016fc;stop-opacity:1;"
         offset="0"
         id="stop15" /><stop
         style="stop-color:#0b0063;stop-opacity:1;"
         offset="1"
         id="stop14" /></linearGradient><inkscape:path-effect
       effect="bspline"
       id="path-effect7"
       is_visible="true"
       lpeversion="1.3"
       weight="33.333333"
       steps="2"
       helper_size="0"
       apply_no_weight="true"
       apply_with_weight="true"
       only_selected="false"
       uniform="false" /><linearGradient
       id="bg-grad"
       x1="-0.49999997"
       y1="0.49999991"
       x2="0.49999997"
       y2="0.49999994"
       spreadMethod="pad"><stop
         offset="0"
         stop-color="#007FFF"
         id="stop1" /><stop
         offset="0.19172662"
         stop-color="#007FFF"
         id="stop2" /><stop
         offset="1"
         stop-color="#0000B0"
         id="stop3"
         style="stop-color:#0002b0;stop-opacity:1;" /></linearGradient><linearGradient
       inkscape:collect="always"
       xlink:href="#linearGradient14"
       id="linearGradient15"
       x1="63.999996"
       y1="1.9239901e-06"
       x2="64"
       y2="127.99997"
       gradientUnits="userSpaceOnUse" /></defs><rect
     fill="url(#bg-grad)"
     x="0"
     y="0"
     width="100%"
     height="100%"
     rx="16"
     id="rect3"
     inkscape:label="background"
     style="display:inline;fill:url(#linearGradient15);fill-opacity:1" /><path
     id="rect4"
     style="fill:#ffffff;stroke-width:1.03704"
     d="M 64 94.050781 A 256 256 0 0 0 8 100.91211 L 8 120 L 120 120 L 120 100.33008 A 256 256 0 0 0 64 94.050781 z "
     inkscape:label="ground" /><path
     id="path18"
     style="fill:#ffffff;stroke-width:4.8681"
     d="m 82.567477,70.502122 c 1.815836,4.846573 4.330242,5.976401 5.652459,7.080381 2.416856,2.106117 5.483086,0.514836 5.483086,0.514836 2.520654,-1.329479 4.933066,0.07279 2.791659,3.105384 -2.025692,2.656412 -2.623495,2.926756 -5.666008,5.620478 -4.422152,-0.226282 -5.31006,-1.597629 -8.4121,-3.464284 -2.082256,-1.73487 -3.638501,-2.956377 -4.550214,-5.437745 0.0612,-2.478798 1.597636,-6.36809 4.701118,-7.41905 z m -46.05427,20.043176 c 1.960255,-0.02647 6.454827,1.751652 5.260997,4.258525 l 7.761672,-0.636808 c 2.911245,-0.06937 -0.900285,-4.077987 -5.985388,-4.024064 -1.605981,-1.284335 -1.592147,-3.251915 -0.842167,-5.460901 1.09613,-3.228521 2.879123,-5.632163 5.150051,-8.513125 -4.136523,0.802579 -11.760202,3.638083 -11.345165,14.376373 z M 62.84691,52.27152 c 6.506769,-0.428344 13.124951,-1.334439 19.637921,-0.744617 1.97389,-3.339703 5.98178,-5.814066 5.77947,-0.301467 8.01605,0.738595 8.30917,6.130246 13.298889,8.691287 3.26583,0.774421 2.51508,4.490937 -0.26741,3.94572 -25.866159,2.677773 -27.005212,12.718704 -21.378986,25.859176 5.255436,0.238018 7.77888,4.908527 4.350163,4.629694 -4.391944,-0.378886 -7.99243,-0.573856 -12.530864,-0.806175 -3.312157,-4.957925 -6.458903,-7.741762 -4.096252,-21.143892 -15.604893,2.327458 -32.705161,1.258918 -31.558506,18.76771 3.0483,-0.625987 7.997064,3.520518 3.878823,3.863643 -2.686715,0.25764 -8.025276,0.83611 -11.175845,1.313843 -3.79089,-4.138809 -3.788985,-11.702344 -3.445954,-17.122714 0.473142,-17.535534 7.727602,-26.015384 37.508357,-26.952116 z"
     sodipodi:nodetypes="ccccccccccccsccscccccccccccccs" /></svg>
